<?xml version="1.0" encoding="UTF-8" standalone="no"?>
<!DOCTYPE svg PUBLIC "-//W3C//DTD SVG 1.1//EN"
 "http://www.w3.org/Graphics/SVG/1.1/DTD/svg11.dtd">
<!-- Generated by graphviz version 13.1.0 (20250701.0955)
 -->
<!-- Title: src/driver_tm1638.h Pages: 1 -->
<svg width="492pt" height="232pt"
 viewBox="0.00 0.00 492.00 232.00" xmlns="http://www.w3.org/2000/svg" xmlns:xlink="http://www.w3.org/1999/xlink">
<g id="graph0" class="graph" transform="scale(1 1) rotate(0) translate(4 228)">
<title>src/driver_tm1638.h</title>
<!-- Node1 -->
<g id="Node000001" class="node">
<title>Node1</title>
<g id="a_Node000001"><a xlink:title="driver tm1638 header file">
<polygon fill="#999999" stroke="#666666" points="372.75,-224 270.5,-224 270.5,-204 372.75,-204 372.75,-224"/>
<text xml:space="preserve" text-anchor="middle" x="321.62" y="-210.5" font-family="Helvetica,sans-Serif" font-size="10.00">src/driver_tm1638.h</text>
</a>
</g>
</g>
<!-- Node2 -->
<g id="Node000002" class="node">
<title>Node2</title>
<g id="a_Node000002"><a xlink:href="driver__tm1638__interface_8h.html" target="_top" xlink:title="driver tm1638 interface header file">
<polygon fill="white" stroke="#666666" points="316.62,-168 198.62,-168 198.62,-136 316.62,-136 316.62,-168"/>
<text xml:space="preserve" text-anchor="start" x="206.62" y="-154.5" font-family="Helvetica,sans-Serif" font-size="10.00">interface/driver_tm1638</text>
<text xml:space="preserve" text-anchor="middle" x="257.62" y="-142.5" font-family="Helvetica,sans-Serif" font-size="10.00">_interface.h</text>
</a>
</g>
</g>
<!-- Node1&#45;&gt;Node2 -->
<g id="edge1_Node000001_Node000002" class="edge">
<title>Node1&#45;&gt;Node2</title>
<g id="a_edge1_Node000001_Node000002"><a xlink:title=" ">
<path fill="none" stroke="#63b8ff" d="M303.47,-195.98C294.2,-187.29 283.02,-176.81 274.02,-168.37"/>
<polygon fill="#63b8ff" stroke="#63b8ff" points="300.83,-198.3 310.52,-202.59 305.62,-193.2 300.83,-198.3"/>
</a>
</g>
</g>
<!-- Node10 -->
<g id="Node000010" class="node">
<title>Node10</title>
<g id="a_Node000010"><a xlink:href="driver__tm1638_8c.html" target="_top" xlink:title="driver tm1638 source file">
<polygon fill="white" stroke="#666666" points="436.75,-162 334.5,-162 334.5,-142 436.75,-142 436.75,-162"/>
<text xml:space="preserve" text-anchor="middle" x="385.62" y="-148.5" font-family="Helvetica,sans-Serif" font-size="10.00">src/driver_tm1638.c</text>
</a>
</g>
</g>
<!-- Node1&#45;&gt;Node10 -->
<g id="edge9_Node000001_Node000010" class="edge">
<title>Node1&#45;&gt;Node10</title>
<g id="a_edge9_Node000001_Node000010"><a xlink:title=" ">
<path fill="none" stroke="#63b8ff" d="M339.86,-195.9C351.59,-184.91 366.37,-171.05 375.9,-162.11"/>
<polygon fill="#63b8ff" stroke="#63b8ff" points="337.63,-193.2 332.73,-202.59 342.42,-198.3 337.63,-193.2"/>
</a>
</g>
</g>
<!-- Node3 -->
<g id="Node000003" class="node">
<title>Node3</title>
<g id="a_Node000003"><a xlink:href="driver__tm1638__basic_8h.html" target="_top" xlink:title="driver tm1638 basic header file">
<polygon fill="white" stroke="#666666" points="117.25,-100 0,-100 0,-68 117.25,-68 117.25,-100"/>
<text xml:space="preserve" text-anchor="start" x="8" y="-86.5" font-family="Helvetica,sans-Serif" font-size="10.00">example/driver_tm1638</text>
<text xml:space="preserve" text-anchor="middle" x="58.62" y="-74.5" font-family="Helvetica,sans-Serif" font-size="10.00">_basic.h</text>
</a>
</g>
</g>
<!-- Node2&#45;&gt;Node3 -->
<g id="edge2_Node000002_Node000003" class="edge">
<title>Node2&#45;&gt;Node3</title>
<g id="a_edge2_Node000002_Node000003"><a xlink:title=" ">
<path fill="none" stroke="#63b8ff" d="M200.19,-131.95C170.08,-121.97 133.68,-109.89 105.33,-100.49"/>
<polygon fill="#63b8ff" stroke="#63b8ff" points="198.94,-135.22 209.53,-135.05 201.14,-128.58 198.94,-135.22"/>
</a>
</g>
</g>
<!-- Node5 -->
<g id="Node000005" class="node">
<title>Node5</title>
<g id="a_Node000005"><a xlink:href="driver__tm1638__interface__template_8c.html" target="_top" xlink:title="driver tm1638 interface template source file">
<polygon fill="white" stroke="#666666" points="253.62,-100 135.62,-100 135.62,-68 253.62,-68 253.62,-100"/>
<text xml:space="preserve" text-anchor="start" x="143.62" y="-86.5" font-family="Helvetica,sans-Serif" font-size="10.00">interface/driver_tm1638</text>
<text xml:space="preserve" text-anchor="middle" x="194.62" y="-74.5" font-family="Helvetica,sans-Serif" font-size="10.00">_interface_template.c</text>
</a>
</g>
</g>
<!-- Node2&#45;&gt;Node5 -->
<g id="edge4_Node000002_Node000005" class="edge">
<title>Node2&#45;&gt;Node5</title>
<g id="a_edge4_Node000002_Node000005"><a xlink:title=" ">
<path fill="none" stroke="#63b8ff" d="M235.13,-127.43C226.48,-118.38 216.86,-108.29 209.16,-100.22"/>
<polygon fill="#63b8ff" stroke="#63b8ff" points="232.53,-129.78 241.97,-134.6 237.6,-124.95 232.53,-129.78"/>
</a>
</g>
</g>
<!-- Node6 -->
<g id="Node000006" class="node">
<title>Node6</title>
<g id="a_Node000006"><a xlink:href="driver__tm1638__read__test_8h.html" target="_top" xlink:title="driver tm1638 read test header file">
<polygon fill="white" stroke="#666666" points="369.12,-100 272.12,-100 272.12,-68 369.12,-68 369.12,-100"/>
<text xml:space="preserve" text-anchor="start" x="280.12" y="-86.5" font-family="Helvetica,sans-Serif" font-size="10.00">test/driver_tm1638</text>
<text xml:space="preserve" text-anchor="middle" x="320.62" y="-74.5" font-family="Helvetica,sans-Serif" font-size="10.00">_read_test.h</text>
</a>
</g>
</g>
<!-- Node2&#45;&gt;Node6 -->
<g id="edge5_Node000002_Node000006" class="edge">
<title>Node2&#45;&gt;Node6</title>
<g id="a_edge5_Node000002_Node000006"><a xlink:title=" ">
<path fill="none" stroke="#63b8ff" d="M280.12,-127.43C288.77,-118.38 298.39,-108.29 306.09,-100.22"/>
<polygon fill="#63b8ff" stroke="#63b8ff" points="277.65,-124.95 273.28,-134.6 282.72,-129.78 277.65,-124.95"/>
</a>
</g>
</g>
<!-- Node8 -->
<g id="Node000008" class="node">
<title>Node8</title>
<g id="a_Node000008"><a xlink:href="driver__tm1638__write__test_8h.html" target="_top" xlink:title="driver tm1638 write test header file">
<polygon fill="white" stroke="#666666" points="484.12,-100 387.12,-100 387.12,-68 484.12,-68 484.12,-100"/>
<text xml:space="preserve" text-anchor="start" x="395.12" y="-86.5" font-family="Helvetica,sans-Serif" font-size="10.00">test/driver_tm1638</text>
<text xml:space="preserve" text-anchor="middle" x="435.62" y="-74.5" font-family="Helvetica,sans-Serif" font-size="10.00">_write_test.h</text>
</a>
</g>
</g>
<!-- Node2&#45;&gt;Node8 -->
<g id="edge7_Node000002_Node000008" class="edge">
<title>Node2&#45;&gt;Node8</title>
<g id="a_edge7_Node000002_Node000008"><a xlink:title=" ">
<path fill="none" stroke="#63b8ff" d="M310.07,-131.56C336.78,-121.65 368.82,-109.77 393.85,-100.49"/>
<polygon fill="#63b8ff" stroke="#63b8ff" points="308.94,-128.24 300.78,-135 311.37,-134.8 308.94,-128.24"/>
</a>
</g>
</g>
<!-- Node4 -->
<g id="Node000004" class="node">
<title>Node4</title>
<g id="a_Node000004"><a xlink:href="driver__tm1638__basic_8c.html" target="_top" xlink:title="driver tm1638 basic source file">
<polygon fill="white" stroke="#666666" points="117.25,-32 0,-32 0,0 117.25,0 117.25,-32"/>
<text xml:space="preserve" text-anchor="start" x="8" y="-18.5" font-family="Helvetica,sans-Serif" font-size="10.00">example/driver_tm1638</text>
<text xml:space="preserve" text-anchor="middle" x="58.62" y="-6.5" font-family="Helvetica,sans-Serif" font-size="10.00">_basic.c</text>
</a>
</g>
</g>
<!-- Node3&#45;&gt;Node4 -->
<g id="edge3_Node000003_Node000004" class="edge">
<title>Node3&#45;&gt;Node4</title>
<g id="a_edge3_Node000003_Node000004"><a xlink:title=" ">
<path fill="none" stroke="#63b8ff" d="M58.62,-56.31C58.62,-48.12 58.62,-39.38 58.62,-32.22"/>
<polygon fill="#63b8ff" stroke="#63b8ff" points="55.13,-56.18 58.63,-66.18 62.13,-56.18 55.13,-56.18"/>
</a>
</g>
</g>
<!-- Node7 -->
<g id="Node000007" class="node">
<title>Node7</title>
<g id="a_Node000007"><a xlink:href="driver__tm1638__read__test_8c.html" target="_top" xlink:title="driver tm1638 read test source file">
<polygon fill="white" stroke="#666666" points="369.12,-32 272.12,-32 272.12,0 369.12,0 369.12,-32"/>
<text xml:space="preserve" text-anchor="start" x="280.12" y="-18.5" font-family="Helvetica,sans-Serif" font-size="10.00">test/driver_tm1638</text>
<text xml:space="preserve" text-anchor="middle" x="320.62" y="-6.5" font-family="Helvetica,sans-Serif" font-size="10.00">_read_test.c</text>
</a>
</g>
</g>
<!-- Node6&#45;&gt;Node7 -->
<g id="edge6_Node000006_Node000007" class="edge">
<title>Node6&#45;&gt;Node7</title>
<g id="a_edge6_Node000006_Node000007"><a xlink:title=" ">
<path fill="none" stroke="#63b8ff" d="M320.62,-56.31C320.62,-48.12 320.62,-39.38 320.62,-32.22"/>
<polygon fill="#63b8ff" stroke="#63b8ff" points="317.13,-56.18 320.63,-66.18 324.13,-56.18 317.13,-56.18"/>
</a>
</g>
</g>
<!-- Node9 -->
<g id="Node000009" class="node">
<title>Node9</title>
<g id="a_Node000009"><a xlink:href="driver__tm1638__write__test_8c.html" target="_top" xlink:title="driver tm1638 write test source file">
<polygon fill="white" stroke="#666666" points="484.12,-32 387.12,-32 387.12,0 484.12,0 484.12,-32"/>
<text xml:space="preserve" text-anchor="start" x="395.12" y="-18.5" font-family="Helvetica,sans-Serif" font-size="10.00">test/driver_tm1638</text>
<text xml:space="preserve" text-anchor="middle" x="435.62" y="-6.5" font-family="Helvetica,sans-Serif" font-size="10.00">_write_test.c</text>
</a>
</g>
</g>
<!-- Node8&#45;&gt;Node9 -->
<g id="edge8_Node000008_Node000009" class="edge">
<title>Node8&#45;&gt;Node9</title>
<g id="a_edge8_Node000008_Node000009"><a xlink:title=" ">
<path fill="none" stroke="#63b8ff" d="M435.62,-56.31C435.62,-48.12 435.62,-39.38 435.62,-32.22"/>
<polygon fill="#63b8ff" stroke="#63b8ff" points="432.13,-56.18 435.63,-66.18 439.13,-56.18 432.13,-56.18"/>
</a>
</g>
</g>
</g>
</svg>
