<?xml version="1.0" encoding="UTF-8" standalone="no"?>
<!DOCTYPE svg PUBLIC "-//W3C//DTD SVG 1.1//EN"
 "http://www.w3.org/Graphics/SVG/1.1/DTD/svg11.dtd">
<!-- Generated by graphviz version 13.1.0 (20250701.0955)
 -->
<!-- Title: tm1638_basic_init Pages: 1 -->
<svg width="277pt" height="520pt"
 viewBox="0.00 0.00 277.00 520.00" xmlns="http://www.w3.org/2000/svg" xmlns:xlink="http://www.w3.org/1999/xlink">
<g id="graph0" class="graph" transform="scale(1 1) rotate(0) translate(4 516)">
<title>tm1638_basic_init</title>
<!-- Node1 -->
<g id="Node000001" class="node">
<title>Node1</title>
<g id="a_Node000001"><a xlink:title="basic example init">
<polygon fill="#999999" stroke="#666666" points="94.75,-260 0,-260 0,-240 94.75,-240 94.75,-260"/>
<text xml:space="preserve" text-anchor="middle" x="47.38" y="-246.5" font-family="Helvetica,sans-Serif" font-size="10.00">tm1638_basic_init</text>
</a>
</g>
</g>
<!-- Node2 -->
<g id="Node000002" class="node">
<title>Node2</title>
<g id="a_Node000002"><a xlink:href="group__tm1638__basic__driver.html#ga98eead5c2e411574bf5054cd5e27ef6a" target="_top" xlink:title="clear segment">
<polygon fill="white" stroke="#666666" points="258.5,-512 141.25,-512 141.25,-492 258.5,-492 258.5,-512"/>
<text xml:space="preserve" text-anchor="middle" x="199.88" y="-498.5" font-family="Helvetica,sans-Serif" font-size="10.00">tm1638_clear_segment</text>
</a>
</g>
</g>
<!-- Node1&#45;&gt;Node2 -->
<g id="edge1_Node000001_Node000002" class="edge">
<title>Node1&#45;&gt;Node2</title>
<g id="a_edge1_Node000001_Node000002"><a xlink:title=" ">
<path fill="none" stroke="#63b8ff" d="M48.79,-260.15C50.83,-296.22 62.72,-419.44 130.75,-483 131.67,-483.86 132.62,-484.68 133.61,-485.46"/>
<polygon fill="#63b8ff" stroke="#63b8ff" points="131.62,-488.35 141.94,-490.77 135.38,-482.44 131.62,-488.35"/>
</a>
</g>
</g>
<!-- Node3 -->
<g id="Node000003" class="node">
<title>Node3</title>
<g id="a_Node000003"><a xlink:href="group__tm1638__basic__driver.html#ga65da3a37b0a2a704139c8d1af0c9b1e3" target="_top" xlink:title="close the chip">
<polygon fill="white" stroke="#666666" points="238.25,-474 161.5,-474 161.5,-454 238.25,-454 238.25,-474"/>
<text xml:space="preserve" text-anchor="middle" x="199.88" y="-460.5" font-family="Helvetica,sans-Serif" font-size="10.00">tm1638_deinit</text>
</a>
</g>
</g>
<!-- Node1&#45;&gt;Node3 -->
<g id="edge2_Node000001_Node000003" class="edge">
<title>Node1&#45;&gt;Node3</title>
<g id="a_edge2_Node000001_Node000003"><a xlink:title=" ">
<path fill="none" stroke="#63b8ff" d="M49.59,-260.28C53.98,-292.64 71.98,-393.29 130.75,-445 136.38,-449.96 143.21,-453.63 150.33,-456.35"/>
<polygon fill="#63b8ff" stroke="#63b8ff" points="149.23,-459.67 159.82,-459.33 151.33,-452.99 149.23,-459.67"/>
</a>
</g>
</g>
<!-- Node4 -->
<g id="Node000004" class="node">
<title>Node4</title>
<g id="a_Node000004"><a xlink:href="group__tm1638__basic__driver.html#ga9dd1709bef41169f5f9bd7e384a44cae" target="_top" xlink:title="initialize the chip">
<polygon fill="white" stroke="#666666" points="233,-436 166.75,-436 166.75,-416 233,-416 233,-436"/>
<text xml:space="preserve" text-anchor="middle" x="199.88" y="-422.5" font-family="Helvetica,sans-Serif" font-size="10.00">tm1638_init</text>
</a>
</g>
</g>
<!-- Node1&#45;&gt;Node4 -->
<g id="edge3_Node000001_Node000004" class="edge">
<title>Node1&#45;&gt;Node4</title>
<g id="a_edge3_Node000001_Node000004"><a xlink:title=" ">
<path fill="none" stroke="#63b8ff" d="M50.73,-260.24C57.7,-288.26 80.96,-366.75 130.75,-407 137.87,-412.75 146.61,-416.77 155.44,-419.57"/>
<polygon fill="#63b8ff" stroke="#63b8ff" points="154.52,-422.94 165.08,-422.12 156.31,-416.17 154.52,-422.94"/>
</a>
</g>
</g>
<!-- Node5 -->
<g id="Node000005" class="node">
<title>Node5</title>
<g id="a_Node000005"><a xlink:href="group__tm1638__interface__driver.html#gac92863ecda283067012911e232a4f1d0" target="_top" xlink:title="interface print format data">
<polygon fill="white" stroke="#666666" points="261.12,-398 138.62,-398 138.62,-366 261.12,-366 261.12,-398"/>
<text xml:space="preserve" text-anchor="start" x="146.62" y="-384.5" font-family="Helvetica,sans-Serif" font-size="10.00">tm1638_interface_debug</text>
<text xml:space="preserve" text-anchor="middle" x="199.88" y="-372.5" font-family="Helvetica,sans-Serif" font-size="10.00">_print</text>
</a>
</g>
</g>
<!-- Node1&#45;&gt;Node5 -->
<g id="edge4_Node000001_Node000005" class="edge">
<title>Node1&#45;&gt;Node5</title>
<g id="a_edge4_Node000001_Node000005"><a xlink:title=" ">
<path fill="none" stroke="#63b8ff" d="M53.72,-260.4C65.1,-281.53 93.71,-329.81 130.75,-357 132.11,-358 133.52,-358.97 134.97,-359.9"/>
<polygon fill="#63b8ff" stroke="#63b8ff" points="133.2,-362.92 143.62,-364.79 136.64,-356.82 133.2,-362.92"/>
</a>
</g>
</g>
<!-- Node6 -->
<g id="Node000006" class="node">
<title>Node6</title>
<g id="a_Node000006"><a xlink:href="group__tm1638__interface__driver.html#ga46427cbb3c2ba68527832c7370db38af" target="_top" xlink:title="interface delay ms">
<polygon fill="white" stroke="#666666" points="269,-348 130.75,-348 130.75,-328 269,-328 269,-348"/>
<text xml:space="preserve" text-anchor="middle" x="199.88" y="-334.5" font-family="Helvetica,sans-Serif" font-size="10.00">tm1638_interface_delay_ms</text>
</a>
</g>
</g>
<!-- Node1&#45;&gt;Node6 -->
<g id="edge5_Node000001_Node000006" class="edge">
<title>Node1&#45;&gt;Node6</title>
<g id="a_edge5_Node000001_Node000006"><a xlink:title=" ">
<path fill="none" stroke="#63b8ff" d="M57.99,-260.5C72.38,-275.6 101.04,-303.36 130.75,-319 133.96,-320.69 137.33,-322.24 140.78,-323.66"/>
<polygon fill="#63b8ff" stroke="#63b8ff" points="139.31,-326.85 149.91,-327.03 141.74,-320.28 139.31,-326.85"/>
</a>
</g>
</g>
<!-- Node7 -->
<g id="Node000007" class="node">
<title>Node7</title>
<g id="a_Node000007"><a xlink:href="group__tm1638__interface__driver.html#ga4c44a4063e12040e4f195080ff1f108e" target="_top" xlink:title="interface spi deinit">
<polygon fill="white" stroke="#666666" points="254.38,-310 145.38,-310 145.38,-278 254.38,-278 254.38,-310"/>
<text xml:space="preserve" text-anchor="start" x="153.38" y="-296.5" font-family="Helvetica,sans-Serif" font-size="10.00">tm1638_interface_spi</text>
<text xml:space="preserve" text-anchor="middle" x="199.88" y="-284.5" font-family="Helvetica,sans-Serif" font-size="10.00">_deinit</text>
</a>
</g>
</g>
<!-- Node1&#45;&gt;Node7 -->
<g id="edge6_Node000001_Node000007" class="edge">
<title>Node1&#45;&gt;Node7</title>
<g id="a_edge6_Node000001_Node000007"><a xlink:title=" ">
<path fill="none" stroke="#63b8ff" d="M84.04,-260.43C99.09,-264.83 117.08,-270.09 134.31,-275.12"/>
<polygon fill="#63b8ff" stroke="#63b8ff" points="132.88,-278.35 143.46,-277.8 134.84,-271.63 132.88,-278.35"/>
</a>
</g>
</g>
<!-- Node8 -->
<g id="Node000008" class="node">
<title>Node8</title>
<g id="a_Node000008"><a xlink:href="group__tm1638__interface__driver.html#ga579da7ed8f74ff882b8601e7cb4ee76a" target="_top" xlink:title="interface spi init">
<polygon fill="white" stroke="#666666" points="263.38,-260 136.38,-260 136.38,-240 263.38,-240 263.38,-260"/>
<text xml:space="preserve" text-anchor="middle" x="199.88" y="-246.5" font-family="Helvetica,sans-Serif" font-size="10.00">tm1638_interface_spi_init</text>
</a>
</g>
</g>
<!-- Node1&#45;&gt;Node8 -->
<g id="edge7_Node000001_Node000008" class="edge">
<title>Node1&#45;&gt;Node8</title>
<g id="a_edge7_Node000001_Node000008"><a xlink:title=" ">
<path fill="none" stroke="#63b8ff" d="M95.17,-250C104.57,-250 114.67,-250 124.75,-250"/>
<polygon fill="#63b8ff" stroke="#63b8ff" points="124.55,-253.5 134.55,-250 124.55,-246.5 124.55,-253.5"/>
</a>
</g>
</g>
<!-- Node9 -->
<g id="Node000009" class="node">
<title>Node9</title>
<g id="a_Node000009"><a xlink:href="group__tm1638__interface__driver.html#ga3f68000908af1409a2622d9bcb0dda41" target="_top" xlink:title="interface spi read">
<polygon fill="white" stroke="#666666" points="266.38,-222 133.38,-222 133.38,-202 266.38,-202 266.38,-222"/>
<text xml:space="preserve" text-anchor="middle" x="199.88" y="-208.5" font-family="Helvetica,sans-Serif" font-size="10.00">tm1638_interface_spi_read</text>
</a>
</g>
</g>
<!-- Node1&#45;&gt;Node9 -->
<g id="edge8_Node000001_Node000009" class="edge">
<title>Node1&#45;&gt;Node9</title>
<g id="a_edge8_Node000001_Node000009"><a xlink:title=" ">
<path fill="none" stroke="#63b8ff" d="M89.9,-239.52C107.42,-235.09 128.01,-229.89 146.55,-225.21"/>
<polygon fill="#63b8ff" stroke="#63b8ff" points="147.18,-228.66 156.02,-222.82 145.47,-221.88 147.18,-228.66"/>
</a>
</g>
</g>
<!-- Node10 -->
<g id="Node000010" class="node">
<title>Node10</title>
<g id="a_Node000010"><a xlink:href="group__tm1638__interface__driver.html#gabf3b67426cf2d6a7a91af991382e8bf5" target="_top" xlink:title="interface spi write">
<polygon fill="white" stroke="#666666" points="254.38,-184 145.38,-184 145.38,-152 254.38,-152 254.38,-184"/>
<text xml:space="preserve" text-anchor="start" x="153.38" y="-170.5" font-family="Helvetica,sans-Serif" font-size="10.00">tm1638_interface_spi</text>
<text xml:space="preserve" text-anchor="middle" x="199.88" y="-158.5" font-family="Helvetica,sans-Serif" font-size="10.00">_write</text>
</a>
</g>
</g>
<!-- Node1&#45;&gt;Node10 -->
<g id="edge9_Node000001_Node000010" class="edge">
<title>Node1&#45;&gt;Node10</title>
<g id="a_edge9_Node000001_Node000010"><a xlink:title=" ">
<path fill="none" stroke="#63b8ff" d="M61.13,-239.63C76.79,-227.28 104.51,-206.61 130.75,-193 133.44,-191.61 136.22,-190.26 139.05,-188.95"/>
<polygon fill="#63b8ff" stroke="#63b8ff" points="140.31,-192.22 148.09,-185.03 137.53,-185.8 140.31,-192.22"/>
</a>
</g>
</g>
<!-- Node11 -->
<g id="Node000011" class="node">
<title>Node11</title>
<g id="a_Node000011"><a xlink:href="group__tm1638__basic__driver.html#ga17185f55a4dae954cf21165ce27840e0" target="_top" xlink:title="set address mode">
<polygon fill="white" stroke="#666666" points="267.88,-134 131.88,-134 131.88,-114 267.88,-114 267.88,-134"/>
<text xml:space="preserve" text-anchor="middle" x="199.88" y="-120.5" font-family="Helvetica,sans-Serif" font-size="10.00">tm1638_set_address_mode</text>
</a>
</g>
</g>
<!-- Node1&#45;&gt;Node11 -->
<g id="edge10_Node000001_Node000011" class="edge">
<title>Node1&#45;&gt;Node11</title>
<g id="a_edge10_Node000001_Node000011"><a xlink:title=" ">
<path fill="none" stroke="#63b8ff" d="M53.38,-239.68C64.32,-218.27 92.46,-168.82 130.75,-143 132.74,-141.66 134.82,-140.41 136.97,-139.25"/>
<polygon fill="#63b8ff" stroke="#63b8ff" points="138.42,-142.44 146.04,-135.07 135.5,-136.08 138.42,-142.44"/>
</a>
</g>
</g>
<!-- Node12 -->
<g id="Node000012" class="node">
<title>Node12</title>
<g id="a_Node000012"><a xlink:href="group__tm1638__basic__driver.html#gaa644b06d55b0727ae663dcb489f43850" target="_top" xlink:title="enable or disable display">
<polygon fill="white" stroke="#666666" points="251.38,-96 148.38,-96 148.38,-76 251.38,-76 251.38,-96"/>
<text xml:space="preserve" text-anchor="middle" x="199.88" y="-82.5" font-family="Helvetica,sans-Serif" font-size="10.00">tm1638_set_display</text>
</a>
</g>
</g>
<!-- Node1&#45;&gt;Node12 -->
<g id="edge11_Node000001_Node000012" class="edge">
<title>Node1&#45;&gt;Node12</title>
<g id="a_edge11_Node000001_Node000012"><a xlink:title=" ">
<path fill="none" stroke="#63b8ff" d="M51.2,-239.77C59.05,-213.23 83.75,-141.71 130.75,-105 132.91,-103.31 135.22,-101.77 137.62,-100.37"/>
<polygon fill="#63b8ff" stroke="#63b8ff" points="139.15,-103.52 146.61,-96 136.09,-97.22 139.15,-103.52"/>
</a>
</g>
</g>
<!-- Node13 -->
<g id="Node000013" class="node">
<title>Node13</title>
<g id="a_Node000013"><a xlink:href="group__tm1638__basic__driver.html#ga368a8f2def6e613bbe831e6ebcb39216" target="_top" xlink:title="set pulse width">
<polygon fill="white" stroke="#666666" points="261.88,-58 137.88,-58 137.88,-38 261.88,-38 261.88,-58"/>
<text xml:space="preserve" text-anchor="middle" x="199.88" y="-44.5" font-family="Helvetica,sans-Serif" font-size="10.00">tm1638_set_pulse_width</text>
</a>
</g>
</g>
<!-- Node1&#45;&gt;Node13 -->
<g id="edge12_Node000001_Node000013" class="edge">
<title>Node1&#45;&gt;Node13</title>
<g id="a_edge12_Node000001_Node000013"><a xlink:title=" ">
<path fill="none" stroke="#63b8ff" d="M49.87,-239.91C55,-209.05 74.73,-115.14 130.75,-67 131.88,-66.03 133.05,-65.11 134.26,-64.24"/>
<polygon fill="#63b8ff" stroke="#63b8ff" points="136.02,-67.26 142.88,-59.19 132.48,-61.22 136.02,-67.26"/>
</a>
</g>
</g>
<!-- Node14 -->
<g id="Node000014" class="node">
<title>Node14</title>
<g id="a_Node000014"><a xlink:href="group__tm1638__basic__driver.html#gacc461a194eb86b8835c47a2160a7f8fc" target="_top" xlink:title="enable or disable test mode">
<polygon fill="white" stroke="#666666" points="258.88,-20 140.88,-20 140.88,0 258.88,0 258.88,-20"/>
<text xml:space="preserve" text-anchor="middle" x="199.88" y="-6.5" font-family="Helvetica,sans-Serif" font-size="10.00">tm1638_set_test_mode</text>
</a>
</g>
</g>
<!-- Node1&#45;&gt;Node14 -->
<g id="edge13_Node000001_Node000014" class="edge">
<title>Node1&#45;&gt;Node14</title>
<g id="a_edge13_Node000001_Node000014"><a xlink:title=" ">
<path fill="none" stroke="#63b8ff" d="M49.01,-239.88C51.75,-205.03 65.62,-88.83 130.75,-29 131.68,-28.15 132.64,-27.33 133.63,-26.56"/>
<polygon fill="#63b8ff" stroke="#63b8ff" points="135.4,-29.58 142,-21.29 131.67,-23.66 135.4,-29.58"/>
</a>
</g>
</g>
</g>
</svg>
