<?xml version="1.0" encoding="UTF-8" standalone="no"?>
<!DOCTYPE svg PUBLIC "-//W3C//DTD SVG 1.1//EN"
 "http://www.w3.org/Graphics/SVG/1.1/DTD/svg11.dtd">
<!-- Generated by graphviz version 13.1.0 (20250701.0955)
 -->
<!-- Title: tm1638 driver function Pages: 1 -->
<svg width="273pt" height="290pt"
 viewBox="0.00 0.00 273.00 290.00" xmlns="http://www.w3.org/2000/svg" xmlns:xlink="http://www.w3.org/1999/xlink">
<g id="graph0" class="graph" transform="scale(1 1) rotate(0) translate(4 286)">
<title>tm1638 driver function</title>
<!-- Node3 -->
<g id="Node000003" class="node">
<title>Node3</title>
<g id="a_Node000003"><a xlink:href="group__tm1638__basic__driver.html" target="_top" xlink:title="tm1638 basic driver modules">
<polygon fill="white" stroke="#666666" points="257.38,-282 155.88,-282 155.88,-250 257.38,-250 257.38,-282"/>
<text xml:space="preserve" text-anchor="start" x="163.88" y="-268.5" font-family="Helvetica,sans-Serif" font-size="10.00">tm1638 basic driver</text>
<text xml:space="preserve" text-anchor="middle" x="206.62" y="-256.5" font-family="Helvetica,sans-Serif" font-size="10.00"> function</text>
</a>
</g>
</g>
<!-- Node1 -->
<g id="Node000001" class="node">
<title>Node1</title>
<g id="a_Node000001"><a xlink:title="tm1638 driver modules">
<polygon fill="#999999" stroke="#666666" points="112.75,-151 0,-151 0,-131 112.75,-131 112.75,-151"/>
<text xml:space="preserve" text-anchor="middle" x="56.38" y="-137.5" font-family="Helvetica,sans-Serif" font-size="10.00">tm1638 driver function</text>
</a>
</g>
</g>
<!-- Node1&#45;&gt;Node3 -->
<g id="edge2" class="edge">
<title>Node1&#45;&gt;Node3</title>
<path fill="none" stroke="black" d="M71.15,-160.41C87.55,-182.37 116.77,-218.06 148.75,-241 153.13,-244.14 157.97,-247.01 162.92,-249.6"/>
<polygon fill="black" stroke="black" points="74.17,-158.61 65.45,-152.6 68.52,-162.74 74.17,-158.61"/>
</g>
<!-- Node6 -->
<g id="Node000006" class="node">
<title>Node6</title>
<g id="a_Node000006"><a xlink:href="group__tm1638__example__driver.html" target="_top" xlink:title="tm1638 example driver modules">
<polygon fill="white" stroke="#666666" points="264.12,-232 149.12,-232 149.12,-200 264.12,-200 264.12,-232"/>
<text xml:space="preserve" text-anchor="start" x="157.12" y="-218.5" font-family="Helvetica,sans-Serif" font-size="10.00">tm1638 example driver</text>
<text xml:space="preserve" text-anchor="middle" x="206.62" y="-206.5" font-family="Helvetica,sans-Serif" font-size="10.00"> function</text>
</a>
</g>
</g>
<!-- Node1&#45;&gt;Node6 -->
<g id="edge5" class="edge">
<title>Node1&#45;&gt;Node6</title>
<path fill="none" stroke="black" d="M85.14,-157.01C103.08,-167.15 127.05,-180.32 148.75,-191 154.56,-193.86 160.77,-196.75 166.87,-199.5"/>
<polygon fill="black" stroke="black" points="87.07,-154.08 76.65,-152.18 83.61,-160.17 87.07,-154.08"/>
</g>
<!-- Node4 -->
<g id="Node000004" class="node">
<title>Node4</title>
<g id="a_Node000004"><a xlink:href="group__tm1638__extern__driver.html" target="_top" xlink:title="tm1638 extern driver modules">
<polygon fill="white" stroke="#666666" points="259.25,-182 154,-182 154,-150 259.25,-150 259.25,-182"/>
<text xml:space="preserve" text-anchor="start" x="162" y="-168.5" font-family="Helvetica,sans-Serif" font-size="10.00">tm1638 extern driver</text>
<text xml:space="preserve" text-anchor="middle" x="206.62" y="-156.5" font-family="Helvetica,sans-Serif" font-size="10.00"> function</text>
</a>
</g>
</g>
<!-- Node1&#45;&gt;Node4 -->
<g id="edge3" class="edge">
<title>Node1&#45;&gt;Node4</title>
<path fill="none" stroke="black" d="M124.07,-152.25C133.98,-153.92 144.06,-155.62 153.61,-157.23"/>
<polygon fill="black" stroke="black" points="124.93,-148.84 114.49,-150.63 123.77,-155.75 124.93,-148.84"/>
</g>
<!-- Node5 -->
<g id="Node000005" class="node">
<title>Node5</title>
<g id="a_Node000005"><a xlink:href="group__tm1638__interface__driver.html" target="_top" xlink:title="tm1638 interface driver modules">
<polygon fill="white" stroke="#666666" points="264.5,-132 148.75,-132 148.75,-100 264.5,-100 264.5,-132"/>
<text xml:space="preserve" text-anchor="start" x="156.75" y="-118.5" font-family="Helvetica,sans-Serif" font-size="10.00">tm1638 interface driver</text>
<text xml:space="preserve" text-anchor="middle" x="206.62" y="-106.5" font-family="Helvetica,sans-Serif" font-size="10.00"> function</text>
</a>
</g>
</g>
<!-- Node1&#45;&gt;Node5 -->
<g id="edge4" class="edge">
<title>Node1&#45;&gt;Node5</title>
<path fill="none" stroke="black" d="M124.09,-129.75C132.31,-128.36 140.65,-126.96 148.7,-125.6"/>
<polygon fill="black" stroke="black" points="123.77,-126.25 114.49,-131.37 124.93,-133.16 123.77,-126.25"/>
</g>
<!-- Node2 -->
<g id="Node000002" class="node">
<title>Node2</title>
<g id="a_Node000002"><a xlink:href="group__tm1638__link__driver.html" target="_top" xlink:title="tm1638 link driver modules">
<polygon fill="white" stroke="#666666" points="253.25,-82 160,-82 160,-50 253.25,-50 253.25,-82"/>
<text xml:space="preserve" text-anchor="start" x="168" y="-68.5" font-family="Helvetica,sans-Serif" font-size="10.00">tm1638 link driver</text>
<text xml:space="preserve" text-anchor="middle" x="206.62" y="-56.5" font-family="Helvetica,sans-Serif" font-size="10.00"> function</text>
</a>
</g>
</g>
<!-- Node1&#45;&gt;Node2 -->
<g id="edge1" class="edge">
<title>Node1&#45;&gt;Node2</title>
<path fill="none" stroke="black" d="M85.14,-124.99C103.08,-114.85 127.05,-101.68 148.75,-91 154.56,-88.14 160.77,-85.25 166.87,-82.5"/>
<polygon fill="black" stroke="black" points="83.61,-121.83 76.65,-129.82 87.07,-127.92 83.61,-121.83"/>
</g>
<!-- Node7 -->
<g id="Node000007" class="node">
<title>Node7</title>
<g id="a_Node000007"><a xlink:href="group__tm1638__test__driver.html" target="_top" xlink:title="tm1638 test driver modules">
<polygon fill="white" stroke="#666666" points="254,-32 159.25,-32 159.25,0 254,0 254,-32"/>
<text xml:space="preserve" text-anchor="start" x="167.25" y="-18.5" font-family="Helvetica,sans-Serif" font-size="10.00">tm1638 test driver</text>
<text xml:space="preserve" text-anchor="middle" x="206.62" y="-6.5" font-family="Helvetica,sans-Serif" font-size="10.00"> function</text>
</a>
</g>
</g>
<!-- Node1&#45;&gt;Node7 -->
<g id="edge6" class="edge">
<title>Node1&#45;&gt;Node7</title>
<path fill="none" stroke="black" d="M71.15,-121.59C87.55,-99.63 116.77,-63.94 148.75,-41 153.13,-37.86 157.97,-34.99 162.92,-32.4"/>
<polygon fill="black" stroke="black" points="68.52,-119.26 65.45,-129.4 74.17,-123.39 68.52,-119.26"/>
</g>
</g>
</svg>
